<svg class="svg-icon" style="width: 1em;height: 1em;vertical-align: middle;fill: currentColor;overflow: hidden;" viewBox="0 0 1024 1024" version="1.1" xmlns="http://www.w3.org/2000/svg"><path d="M863.9945 47.99925h-63.999a7.999875 7.999875 0 0 1 0-15.99975h63.999a7.999875 7.999875 0 0 1 0 15.99975z" fill="#263238" /><path d="M831.995 79.99875a7.999875 7.999875 0 0 1-7.999875-7.999875v-63.999a7.999875 7.999875 0 0 1 15.99975 0v63.999a7.999875 7.999875 0 0 1-7.999875 7.999875zM951.993125 135.997875h-63.999a7.999875 7.999875 0 0 1 0-15.99975h63.999a7.999875 7.999875 0 0 1 0 15.99975z" fill="#263238" /><path d="M919.993625 167.997375a7.999875 7.999875 0 0 1-7.999875-7.999875V95.9985a7.999875 7.999875 0 0 1 15.99975 0v63.999a7.999875 7.999875 0 0 1-7.999875 7.999875zM863.9945 703.989a7.999875 7.999875 0 0 1-7.999875-7.999875v-31.9995a7.999875 7.999875 0 0 1 15.99975 0v31.9995a7.999875 7.999875 0 0 1-7.999875 7.999875zM863.9945 639.99a7.999875 7.999875 0 0 1-7.999875-7.999875v-287.9955a7.999875 7.999875 0 0 1 15.99975 0v287.9955a7.999875 7.999875 0 0 1-7.999875 7.999875zM472.000625 789.77966c-136.749863 0-247.996125-111.262262-247.996125-247.996125 0-136.749863 111.246262-247.996125 247.996125-247.996125S719.99675 405.033671 719.99675 541.783535s-111.246262 247.996125-247.996125 247.996125z m0-479.9925c-127.918001 0-231.996375 104.078374-231.996375 231.996375s104.078374 231.996375 231.996375 231.996375S703.997 669.701536 703.997 541.783535s-104.078374-231.996375-231.996375-231.996375z" fill="#263238" /><path d="M663.997625 541.783535c0 106.030343-85.966657 191.997-191.997 191.997s-191.997-85.966657-191.997-191.997 85.966657-191.997 191.997-191.997 191.997 85.966657 191.997 191.997z" fill="#FFD740" /><path d="M472.000625 741.78041c-110.286277 0-199.996875-89.710598-199.996875-199.996875 0-53.423165 20.799675-103.66238 58.575085-141.421791a198.684896 198.684896 0 0 1 141.40579-58.575084h0.016c110.286277 0 199.996875 89.710598 199.996875 199.996875s-89.710598 199.996875-199.996875 199.996875z m-0.016-383.994a182.781144 182.781144 0 0 0-130.093967 53.887158A182.797144 182.797144 0 0 0 288.0035 541.783535c0 101.454415 82.54271 183.997125 183.997125 183.997125S655.99775 643.253949 655.99775 541.783535s-82.54271-183.997125-184.013125-183.997125z" fill="#263238" /><path d="M615.998375 549.78341a7.999875 7.999875 0 0 1-7.999875-7.999875c0-74.990828-61.007047-135.997875-135.997875-135.997875a7.999875 7.999875 0 0 1 0-15.99975c83.806691 0 151.997625 68.190935 151.997625 151.997625a7.999875 7.999875 0 0 1-7.999875 7.999875zM709.596913 832.62699a8.031875 8.031875 0 0 1-5.663912-2.335963l-92.206559-92.20656a8.047874 8.047874 0 0 1 0.783988-12.015812 233.996344 233.996344 0 0 0 43.743316-43.743316 8.031875 8.031875 0 0 1 12.015812-0.783988l92.20656 92.206559a7.999875 7.999875 0 0 1 0 11.311823l-45.247293 45.247293a7.999875 7.999875 0 0 1-5.631912 2.319964z m-80.206747-99.518445l80.206747 80.206747 33.935469-33.93547-80.206746-80.206747a250.076093 250.076093 0 0 1-33.93547 33.93547z" fill="#263238" /><path d="M760.492117 773.715911l-56.575116 56.575116a15.98375 15.98375 0 0 0 0 22.623646l158.381526 158.381525a15.98375 15.98375 0 0 0 22.623646 0l56.575116-56.575116a15.98375 15.98375 0 0 0 0-22.623646l-158.381525-158.381525a15.98375 15.98375 0 0 0-22.623647 0z" fill="#40C4FF" /><path d="M873.642349 1023.968c-6.143904 0-12.303808-2.335964-16.975734-7.00789l-158.381526-158.381525a24.031625 24.031625 0 0 1 0-33.95147l56.559117-56.559116a24.015625 24.015625 0 0 1 33.935469 0l158.381526 158.381525a24.015625 24.015625 0 0 1 0 33.93547l-56.559117 56.575116a23.935626 23.935626 0 0 1-16.959735 7.00789z m-101.838408-246.940141a7.967876 7.967876 0 0 0-5.663912 2.335963l-56.559116 56.559117a8.031875 8.031875 0 0 0 0 11.327823l158.381525 158.381525a7.999875 7.999875 0 0 0 11.311823 0l56.559117-56.575116a7.999875 7.999875 0 0 0 0-11.311823l-158.381526-158.381526a7.967876 7.967876 0 0 0-5.647911-2.335963z" fill="#263238" /><path d="M741.74041 943.98525H184.005125c-26.463587 0-47.99925-21.535664-47.99925-47.99925V143.99775c0-26.463587 21.535664-47.99925 47.99925-47.99925h575.991c26.463587 0 47.99925 21.535664 47.99925 47.99925v602.358588a7.999875 7.999875 0 0 1-15.99975 0V143.99775c0-17.647724-14.351776-31.9995-31.9995-31.9995h-575.991c-17.647724 0-31.9995 14.351776-31.9995 31.9995v751.98825c0 17.647724 14.351776 31.9995 31.9995 31.9995h557.735285a7.999875 7.999875 0 0 1 0 15.99975z" fill="#263238" /><path d="M472.000625 549.78341a7.903877 7.903877 0 0 1-4.431931-1.343979l-234.540335-156.349557-155.357573 155.357572a7.999875 7.999875 0 0 1-11.311823-11.311823l159.9975-159.9975a7.999875 7.999875 0 0 1 10.095842-0.991985l234.540336 156.349557 235.356322-235.356322a7.999875 7.999875 0 0 1 11.311824 11.311823l-239.996251 239.99625a8.047874 8.047874 0 0 1-5.663911 2.335964z" fill="#263238" /><path d="M472.000625 541.783535m-39.999375 0a39.999375 39.999375 0 1 0 79.99875 0 39.999375 39.999375 0 1 0-79.99875 0Z" fill="#FFD740" /><path d="M472.000625 589.782785c-26.463587 0-47.99925-21.535664-47.99925-47.99925s21.535664-47.99925 47.99925-47.99925 47.99925 21.535664 47.99925 47.99925-21.535664 47.99925-47.99925 47.99925z m0-79.99875c-17.647724 0-31.9995 14.351776-31.9995 31.9995s14.351776 31.9995 31.9995 31.9995 31.9995-14.351776 31.9995-31.9995-14.351776-31.9995-31.9995-31.9995z" fill="#263238" /><path d="M304.00325 167.997375h335.99475v63.999H304.00325z" fill="#FF5252" /><path d="M639.998 239.99625H304.00325a7.999875 7.999875 0 0 1-7.999875-7.999875v-63.999a7.999875 7.999875 0 0 1 7.999875-7.999875h335.99475a7.999875 7.999875 0 0 1 7.999875 7.999875v63.999a7.999875 7.999875 0 0 1-7.999875 7.999875z m-327.994875-15.99975h319.995v-47.99925h-319.995v47.99925z" fill="#263238" /></svg>