<svg class="svg-icon" style="width: 1em; height: 1em;vertical-align: middle;fill: currentColor;overflow: hidden;" viewBox="0 0 1024 1024" version="1.1" xmlns="http://www.w3.org/2000/svg"><path d="M530.7 153.7c5 1.9 10.4 1.7 15.6 2.5 37.9 6.3 71.2 22.1 100.1 47.3 1.8 0.6 3 2 4.3 3.2 4.2 4.2 8.4 8.4 12.6 12.5 4.1 3.3 6.4 8.2 10.3 11.7 13.4 16.3 23 34.7 30.4 54.4 1 2.8 2.4 5.5 2.5 8.6 0.1 1.1 0.5 2 0.9 3 3.3 8.4 5 17.1 6.1 26 0.1 1.3 0.1 2.6 0.3 3.8 0.2 0.6 0.3 1.3 0.5 2 0.4 2.1 0.2 4.3 1 6.3 2.3 14.1 1.6 28.1-0.5 42.1-3 19.5-7.8 38.5-14.4 57.1-1.6 2.2-1.8 5-2.6 7.6-3.2 9.6-6.5 19.2-10.5 28.6-0.4 1-0.7 2-0.9 3-5.3 14.8-11.4 29.3-17.6 43.8-6.3 14.9-13.2 29.6-19.9 44.3-0.4 0.8-0.9 1.6-1.4 2.3-1 1.2-1.5 2.6-1.9 4-1.2 4.3-3.1 8.1-5.6 11.8-3.5 5.1-5.7 10.9-8 16.7-3.2 8-8.8 14.7-12.1 22.7-2.3 5.4-4.3 10.9-7.7 15.7-0.8 1-1.6 2-1.8 3.3-4.3 9.3-9.3 18.1-14.2 27.1-4.9 8.9-9.9 17.8-14.9 26.7-11.9 20.2-23.7 40.5-36.8 60-6 8.9-12.1 17.6-19 25.8-8.9 10.5-13.1 10.8-22.6 1-9.2-9.4-16.6-20.2-23.9-31.1-14.4-21.7-27.8-44-40.4-66.8-3.7-6.7-7.7-13.3-11-20.2-9.3-18.4-19.4-36.5-28.6-54.9-2.5-5.1-5-10.2-7.1-15.5-0.8-1.3-1.3-2.7-2.3-3.9-11.5-23.2-22.1-47-32.1-70.9-0.9-2.1-1.8-4.1-2.7-6.2-2.6-7.4-6.2-14.5-8.4-22-1.5-5.7-4.1-10.9-6.1-16.4-2.9-7.9-5.4-15.9-8.7-23.6-8.3-24.4-15.4-49.2-18.8-74.9-0.3-2.1-0.2-4.2-0.2-6.3 0.6-6-1.9-11.9-0.1-17.9 0.3-3.4 0-6.8 0.2-10.1 0.1-1.3 0.4-2.5 0.7-3.7 0.3-1.7 0.1-3.4 0.4-5.1 0.4-1.9 0.6-3.9 1.8-5.6 3.6-25 11.9-48.4 24.9-70 32.9-54.6 81.1-87 144-97.7 3.7-0.6 7.6-0.2 11.2-2h9c2.4 0.8 4.8 0.8 7.2 0h4.5c2.1 0.7 4.2 0.7 6.3 0h3.6c0.6 0.6 1.2 0.6 1.8 0 0.8-0.1 1.7-0.1 2.6-0.1z" fill="" /><path d="M511.7 153.7c-2.4 1.4-4.8 1.4-7.2 0h7.2z" fill="#150D04" /><path d="M522.6 153.7c-2.1 1.5-4.2 1.4-6.3 0h6.3z" fill="#160E05" /><path d="M66.7 853.6c-0.2 0-0.5-0.1-0.7-0.1v-6.3c0.2-0.2 0.5-0.3 0.8-0.1 1.8 2.1 1.9 4.3-0.1 6.5z" fill="#7B7979" /><path d="M528 153.7c-0.6 1.2-1.2 1-1.8 0h1.8z" fill="#765E43" /><path d="M313.6 366.5c0.7 16 4.7 31.4 8.7 46.7 3 11.6 6.4 23.1 10.6 34.3 0.6 2.5-1.4 2.7-2.9 3-1.8 0.3-3.6 0.2-5.4 0.2h-88.1c-2.9 0-5.7 0-8.4 1.1-6.4 2.6-10.6 8.9-10.3 15.6 0.2 6.9 4.9 13.1 11.6 15.2 3.9 1.2 8 1.5 12.1 1.5h98.1c2.8 0 5.9-0.7 7.8 2.3 2.9 7.5 5.7 15.1 8.6 22.6 1.2 4.9 1.1 9.8 1.1 14.8v52.7c0 2.4 0.3 4.8-0.8 7.1-2.1 2.4-5 1.7-7.6 1.7-35.4 0.1-70.8 0-106.2 0-3.2 0-6.3 0.1-9.4 0.9-7.7 2.1-12.7 7.8-13.3 15.3-0.5 7.1 4.1 13.8 11.4 16.7 1 0.4 2 0.7 3 1 2.2 0.8 4.5 0.6 6.7 0.6h110.2c4.8 0.2 5.7 1.1 5.9 6 0.1 1.2 0 2.4 0 3.6v193.7c0 9.7-0.2 9.9-9.8 9.9-16.6 0.1-33.1-0.2-49.6 0.2-8.2 1.3-13.5 6-16 13.9-0.2 0.7-0.6 1.4-1.3 1.7H259c-1.7-1-2.1-2.9-2.8-4.5-3.1-6.6-8.1-10.3-15.6-10.3h-25.7c-7.2-0.1-8-0.8-8-8.1V675v-62.3c0-18.4-1.4-36.7-1-55.1 0.2-8.6-5.7-14.5-14.4-15.7-1.6-0.2-3.4-0.1-4.5-1.7 2.7-0.5 3.2-2.2 3.2-4.7-0.1-14.8-0.1-29.7-0.1-44.5 0.8-1.3 2.2-1.4 3.5-1.9 8.9-2.9 13.2-8.6 13.3-18.1 0.1-14.6 0-29.2 0-43.8 0-9.2-0.1-18.4 0-27.5 0.2-21.3 20.4-41.3 41.7-41.4h55.5c8.4 0.2 8.4 0.2 9.5 8.2z" fill="#69CAFE" /><path d="M186.7 540.4c13.9-0.2 20.7 6.6 20.7 20.7 0.1 88.7 0.3 177.4 0.3 266.1 0 4.6 1.4 5.5 5.5 5.3 8.4-0.3 16.9-0.1 25.3-0.1 11.6 0.1 17.7 5 20.2 16.5-0.7 13.1-7.6 19.7-20.7 19.7H86.7c-11.2 0-17.8-5-20.1-14.9v-6.6c2.3-9.7 8.7-14.6 19.3-14.6 26.8-0.1 53.6-0.1 80.4 0.1 4.5 0 5.3-1.3 5.3-5.5-0.2-88.5-0.3-177-0.5-265.5 0.2-12.3 4.8-18.7 15.6-21.2zM313.6 366.5c-1.5-6.7-1.5-6.7-8.8-6.7-18.8 0-37.7 0.4-56.5-0.1-22.9-0.6-40.9 25-40.6 40.4 0.5 23.5 0.1 47 0.1 70.5 0 12.3-6.1 19.1-18.1 20.5-11.9-1.3-18.1-8-18.1-19.9 0-23.6 0.4-47.3-0.1-70.9-0.7-35.1 33.3-77.6 77-76.7 20.6 0.4 41.3 0.1 61.9 0.1 1.7 0 3.3-0.2 5-0.2 0.2 2 0.3 3.9-0.8 5.7-0.7 1.8-0.7 3.6 0 5.4-0.3 0.9-0.6 1.9-0.9 2.8-0.8 3.6-0.7 7.2 0 10.8-2 6 0.8 12.2-0.1 18.3zM280 848.8c1.5-9.1 6.7-14.7 15.9-16.4 17.8-0.5 35.7 0.4 53.5-0.4 11.8-0.5 23.6-0.7 35.4-0.9 1.5 0 3 0 4.2-1.2 1.7-1.9 1.1-4.3 1.1-6.5V598.6c0-2-0.1-3.9 0.1-5.9 0.1-1.4 0-3.1 2.1-3.4 3.3 6.8 6.3 13.8 9.8 20.5 7.1 13.2 13.4 26.8 21.1 39.7 2 3.3 3.5 6.9 5.2 10.4 1.4 55.2 0.2 110.4 0.6 165.6 0 1.5 0 3 0.8 4.4 1.4 1.6 3.2 1.4 5 1.4 56.1 0 112.2 0.2 168.2-0.2 1.9 0 3.9 0.3 5.6-1.2 1.7-1.9 1.1-4.3 1.2-6.5V644.8c0-3.4-0.1-6.9 1.3-10.2 3.9-8.1 7.1-16.5 11.8-24.1 5.5-8.8 8.5-18.8 13.7-27.6 3.8-6.4 6.7-13.1 9.8-19.8 2.1 2.7 1.3 5.8 1.3 8.7 0 83.4 0 166.8 0.1 250.2 0 2.7-0.6 5.4 1 7.9 1.4 1.5 3.3 1.3 5.1 1.3 56.1-0.1 112.3 0.2 168.4-0.2 5.7 0 6.1-0.4 6.1-6.2 0.1-16-0.1-31.9 0.1-47.9 0.1-9.3 5.1-16.5 12.9-19.4 2.1-0.7 4.3-1.7 6.5-0.1 13.4 2.7 18.1 8.4 18.1 22 0 16.3 0.1 32.5-0.1 48.8 0 3.2 0.8 4 4 4 23.8-0.1 47.6-0.1 71.4 0 10.5 0 17.5 5.9 19.1 15.5 1.5 9-4.6 18.1-13.6 20-2.3 0.5-4.8 0.6-7.2 0.6H301c-13.5 0.2-20.2-6.1-21-19.5z" fill="#030000" /><path d="M848 757.6c-13.4 2.6-18.1 8.3-18.1 22v48.7c0 2.5 0 4.1-3.4 4.1-59-0.1-118 0-176.9 0-0.7 0-1.4-0.3-2.1-0.5 2.3-2.4 5.4-1.6 8.1-1.6 49.4-0.1 98.8 0 148.3 0 10.1 0 9.3 0.5 9.3-9.3V612.6c-0.2-2.2 1.4-3.5 2.7-4.9 7.5-7.6 7.8-16.7 0.6-24.7-1.3-1.4-2.8-2.8-3-4.8-0.5-5-0.2-9.9-0.2-14.9 0-30.3 0-60.7-0.1-91-0.2-2.1 1.3-3.1 2.7-4.3 10-8 10.3-19.3 0.6-27.5-1.4-1.2-2.8-2.3-3-4.3-0.4-2.5-0.3-5.1-0.3-7.6 0-32.7 0-65.4-0.1-98.1-0.2-2.3 1.3-3.6 2.8-4.9 7.7-6.8 7.3-19 0.3-24.8-1.2-1-2.1-2.1-2.5-3.7-0.7-9.3-0.3-18.6-0.3-27.9 0.1-16.9-7.7-29.2-21.6-38.2-1.3-0.9-3.7-1-3.4-3.5 4.5-2.2 8.9-0.6 13.1 0.8 18.9 6.4 30.6 23.9 29.9 41.2-0.8 18.3-0.2 36.7-0.2 55.1 0 10.8 3.4 15.5 13.7 19 1.1 0.4 2.3 0.6 3.1 1.8 0 5.2-0.1 10.4-0.1 15.5-1.1 1.5-2.8 1.7-4.3 2.2-7.3 2.6-11.2 7.8-12.1 15.4-0.2 1.5-0.1 3-0.1 4.5v224.8c0 1.5 0 3 0.1 4.5 0.7 7.3 5.3 12.9 12.3 15.1 1.5 0.5 3.4 0.3 4.2 2.2v128z" fill="#1C8EF0" /><path d="M848 345.5c-12.1-1.5-18.1-8.2-18.1-20.4 0-19.2-0.7-38.5 0.2-57.7 0.8-18.3-18.9-40.8-41.5-39.2-2.3 1.7-4.9 1.2-7.4 1.2-26.5 0-52.9 0.1-79.4 0-9.8 0-19.5-0.2-29.1 2.2-3.3-3.9-6.6-7.8-9.9-11.8-3.9-4.6-8-8.9-12.7-12.6-1.5-0.9-2.7-2.1-3.6-3.6 13-8.1 27.1-11.8 42.4-11.7 33.7 0.2 67.5 0 101.2 0.1 35.2 0.1 67 25.7 74.6 60.1 1 4.4 1.4 8.9 1.4 13.4v59.6c-0.1 12.1-6 18.9-18.1 20.4zM848 629.7c-12.6-1.7-18.1-8-18.1-20.9V381.6c0-12.5 5.5-18.7 17.9-20.6 9.3 0.9 15.7 5.3 17.8 14.8 0.4 1.9 0.4 3.9 0.4 5.8v227.1c0.1 12.8-5.5 19.3-18 21z" fill="#030000" /><path d="M500.8 712.5c-12-17.9-22.5-36.6-32.9-55.4-35.5-64.4-67.5-130.5-93.2-199.5-9.4-25.2-18-50.7-22.9-77.2-8.1-43.1 1.4-82.8 26.1-118.3 34.7-49.7 83.3-73.7 144-72 21 0.6 41.4 5.4 60.4 14.9 15.3 10.8 26.1 25.7 36 41.2 15.8 24.5 25.5 51.4 29.9 80.3 3.7 24.8 1.5 49.2-4.4 73.4-9.4 38.6-23.7 75.5-39.1 112-15.9 37.6-33.5 74.4-52.2 110.7-15 29-30.6 57.7-47.4 85.8-1 1.7-1.6 4-4.3 4.1z" fill="#FEDD5D" /><path d="M813.8 470.9c1 1.1 0.7 2.6 0.7 3.9v104.8c-0.4 0.2-0.8 0.5-1.2 0.4-17.7-3.8-35.7-1.1-53.5-1.8-3.9-0.2-7.8-0.3-11.7 0.1-6.6 0.6-12.3 3-15.4 9.4-5.5 11.1 2.3 23.8 15 23.9 19.1 0.2 38.2 0 57.3 0.1 3 0 5.8-1.9 8.8-0.7 1.3 1.4 0.8 3.2 0.8 4.8 0 70.3 0 140.7 0.1 211 0 3.9-0.9 5.1-5 5.1-52.3-0.1-104.5-0.1-156.8-0.1-1.8 0-3.6 0.1-5.4 0.2-1.4-1.6-0.7-3.5-0.7-5.2V600.4c0-12.4-0.1-24.7-0.2-37.1 14.2-29.6 27.5-59.6 38.8-90.4 1.8-2.8 4.7-2.3 7.3-2.3 16.1-0.1 32.2 0 48.3 0 23.3-0.1 46.6 0.3 69.9-0.2 1-0.2 2-0.2 2.9 0.5zM427.8 832c-1.1-1.5-0.6-3.2-0.6-4.8V664.8c0-1.5-1.2-3.6 1.2-4.7 7.7 15.6 16.6 30.6 25.5 45.6 13.7 23 27.5 45.9 44.5 66.7 2.9 3.5 5.9 6.8 9.4 9.7 4.9 4 7.1 3.9 11.7-0.4 6-5.6 10.8-12.2 15.5-18.7 15.7-21.9 29.4-45 43-68.2 0.7-1.1 1.5-2.2 2.2-3.3 1.7 1.7 1.5 3.9 1.5 6v128.4c0 6.2-0.4 6.5-6.7 6.5H432.6c-1.5-0.2-3.1 0-4.8-0.4z" fill="#69CAFE" /><path d="M500.8 712.5c7.2-10.4 13.1-21.6 19.3-32.5 18.6-33 36.3-66.6 52.7-100.8 22.4-46.7 43.4-93.9 59.5-143.2 7-21.4 12.8-43.2 15.7-65.6 2.1-16.1 0.8-32.1-1.8-48-4.7-28.7-15.2-55.3-31.5-79.5-9.1-13.5-19.3-26.1-31.8-36.7-0.3-0.3-0.5-0.8-0.7-1.1 14.7 5.9 27.7 14.6 39.4 25 38.2 34 57.8 76.7 57.1 128-0.2 20.3-6.2 39.8-12.2 59-18.4 58.4-43.8 113.8-71.1 168.5-24.2 48.5-50.1 96-79.6 141.4-0.9 1.4-1.8 2.7-3 4.3-4.1-6.4-8.5-12.3-12-18.8z" fill="#EC8B1C" /><path d="M813.8 329c1.1 1.3 0.7 2.9 0.7 4.3v104.3c-0.6 0.5-1.3 0.7-2.1 0.6-21.9-2.1-44-0.6-65.9-0.9-13.9-0.2-27.7 0-41.6-0.1-2.2 0-5 0.7-6.2-2.3 10.7-32.6 19.7-65.5 15.3-100.4-0.3-1.4-0.8-2.9 0.5-4.1 2.4-1.3 5-0.9 7.5-0.9 26.6 0 53.2-0.1 79.8 0.1 4.1 0 8-1.7 12-0.6z" fill="#69CAFE" /><path d="M390.8 831.5c-0.9 1.2-2.2 0.9-3.3 0.9h-91.6c1.5-1.2 3.2-0.6 4.8-0.6 16.7 0 33.4-0.1 50.1 0 3.5 0 4.6-0.9 4.6-4.5-0.1-67.3-0.1-134.6 0-201.9 0-3.8-1.4-4.4-4.7-4.4-37.3 0.1-74.7 0.1-112 0-1.7 0-3.6 0.6-5.2-0.7 2.2-2.3 5.1-1.5 7.7-1.5 40-0.1 80-0.1 120 0 5.2 0 9.7-1 13.5-5 8.8-9.5 4.6-24.1-7.9-27.6-3.8-1-7.9 0-11.3-2.2v-70.6c0-1.5 0.2-3 0.4-4.4 10.6 24.6 21.3 49.2 33 73.3 0.6 1.2 1.2 2.4 1.9 3.6 1.1 2.6 0.4 5.3 0.4 8v232.7c-0.2 1.6 0 3.3-0.4 4.9z" fill="#1C8EF0" /><path d="M672.6 231.4c3.3-3.1 7.7-3.4 11.7-3.4 34.8-0.1 69.5 0 104.3 0 16.4 8.4 25.9 21.4 26 40.3 0.1 9.8 0 19.5 0 29.3-3 1-5.5-1.2-8.3-1.2-2.1-0.6-4.2-0.3-6.3-0.3-29.3 0-58.7 0-88-0.1-2.2 0-4.9 0.8-6.5-1.8-1.1-7.3-4.4-13.9-7.3-20.6-6.8-15.1-15-29.4-25.6-42.2z" fill="#69CAFE" /><path d="M427.8 832c1.8-0.1 3.6-0.2 5.4-0.2 47.4 0 94.8-0.1 142.2 0.1 4 0 5.1-1 5-5-0.1-45.1-0.1-90.3-0.1-135.5 7.1-13 14.3-26 21.4-39.1 2.6-4.9 5.1-9.9 7.6-14.8 0.7-0.1 1.2 0.1 1.2 0.9 0.1 1 0.1 2.1 0.1 3.2V828c0 1.2 0.1 2.4-0.2 3.6-1.1 1.2-2.5 0.8-3.8 0.8-58.6 0.1-117.3 0.1-175.9 0.1-0.9 0-2 0.3-2.9-0.5z" fill="#1C8EF0" /><path d="M698.7 434.9c1.2 2.1 3.3 1.1 4.9 1.1 32.8 0.1 65.7 0.1 98.5 0 4.2 0 8.4 0.3 12.4 1.6 5.7 3.7 9.7 8.4 10 15.6 0.3 8.3-3.8 13.9-10.7 17.8-3.5 1.1-7.1 1.3-10.7 1.3H690.6c-1.8 0-3.6-0.4-5.3 0.7 4.8-12.7 9.4-25.3 13.4-38.1zM347.1 486.4c-1.5-1.8-3.6-1.2-5.5-1.2H236.8c-11.2 0-18.3-5.2-20.3-14.7-2.2-9.9 5.1-20.1 15.2-21.2 1.8-0.2 3.6-0.2 5.4-0.2 30.4 0 60.8 0 91.2-0.1 1.5 0 3.8 1.3 4.5-1.4 4.8 12.9 9.6 25.9 14.3 38.8zM807.4 295.5c2.7-0.3 4.7 1.4 7.1 2.1 6.9 5.6 10.1 12.5 7.3 21.4-1.4 4.4-4.4 7.3-8 10-3.1 1.3-6.2 2.2-9.6 2.2-30-0.1-60-0.1-89.9-0.1-1-0.7-0.1-2.1-1-2.8-0.3-0.3-0.6-0.7-0.9-1 0.7-1.5 0.7-2.9 0-4.4-1.8-8.5-2.3-17.4-6.3-25.3 0.5-1.6 1.5-2.3 3.3-2.3 32.4 0.1 64.7 0 97.1 0.1 0.3-0.2 0.6 0 0.9 0.1z" fill="#030000" /><path d="M390.8 831.5c-0.1-1.8-0.2-3.6-0.2-5.4V592.6c0-2.3-0.1-4.5-0.1-6.8 0.6 1.2 1.2 2.4 1.9 3.6-1.8 1.6-1 3.7-1 5.5 0 77.1 0 154.2-0.1 231.2 0.1 1.9 0.7 3.7-0.5 5.4z" fill="#403817" /><path d="M610.5 831.6c0-3.2-0.1-6.3-0.1-9.5 0-59.9 0-119.7-0.1-179.6 0-1.6 0.9-3.6-0.9-5-0.2-1.4 0.5-2.3 1.8-2.8 0 63.9 0 127.7-0.1 191.6 0 1.8 0.6 3.6-0.6 5.3z" fill="#39260F" /><path d="M807.4 295.5c-31.9 0-63.8 0.1-95.6 0.1-2.1 0-4.3-0.4-5.7 1.8-0.3-1.1-0.5-2.2-0.8-3.3 1.6 1.1 3.5 0.7 5.3 0.7h91.1c1.9 0.1 3.9-0.3 5.7 0.7z" fill="#372006" /><path d="M650 207c5.4 3 9.5 7.4 12.7 12.6-4.6-3.7-8.8-8-12.7-12.6z" fill="#1B0F03" /><path d="M313.7 348c-1.4-3.6-1.5-7.2 0-10.8V348z" fill="#342C13" /><path d="M713.4 328.2c1 0.7 0.8 1.8 1 2.8-0.1 1.1-0.2 2.3-0.2 3.5-1.6-2-0.6-4.2-0.8-6.3z" fill="#2D1A05" /><path d="M314.6 334.4c-1.4-1.8-1.4-3.6 0-5.4v5.4z" fill="#362F13" /><path d="M712.4 322.8c1.4 1.5 1.3 2.9 0 4.4v-4.4z" fill="#351F06" /><path d="M355.3 584.1c3.1 0.2 6.3 0.1 9.4 0.5 10 1.3 16.4 9.1 15.9 19-0.4 9.3-8 16.7-17.8 16.8-17.4 0.1-34.9 0-52.3 0h-77.1c-10.3-2.6-16.5-10.5-15.4-19.7 1.2-9.9 8.8-16.3 19.9-16.3 37.3-0.1 74.7 0 112 0l5.4-0.3zM813.8 611c-3.6 1.7-7.4 2.2-11.4 2.2-18.5-0.1-37 0-55.6-0.1-8.5-0.1-15.8-6.5-17.2-14.5-1.5-8.9 3.1-17.2 11.4-20.3 2.6-1 5.2-1.3 8-1.3 18.1 0 36.1 0.1 54.2 0 4 0 7.7 1.2 11.3 2.7 11.5 10.4 11.2 22.1-0.7 31.3z" fill="#030000" /><path d="M514.3 440.3c-57.4 0-103.7-46.7-103.8-104.6-0.1-57.1 47.1-104.2 104.1-104s103.8 47.2 103.6 104.1c-0.2 57.9-46.4 104.5-103.9 104.5z" fill="" /><path d="M375.5 374.4c3.4 0.5 6.2 2.3 6.9 6.3 7.9 48.7 26.4 93.9 46.4 138.6 22.2 49.6 48.5 97.2 74.3 145 0.4 0.8 0.9 1.6 1.3 2.4 2.6 5.2 1.9 9-2.2 11.2-4 2.2-7.7 0.7-10.6-4.5-14.9-27.5-29.8-55.1-44.1-82.9-18-34.9-35.5-70.1-49.5-106.8-11-28.6-21.7-57.4-27.6-87.6-0.8-4.3-1.6-8.6-2.2-12.9-0.7-4.5 2.8-8.7 7.3-8.8zM366.1 341.3c0.1-6.8 1-13.4 2-20.1 0.7-5 3.8-7.3 8.4-6.7 4 0.5 6.5 3.6 5.9 8.5-0.9 8-1.8 16.1-2 24.2-0.1 4.4-3.7 7.4-7.7 7.2-3.9-0.2-6.5-3.2-6.6-7.6-0.1-1.9 0-3.7 0-5.5z" fill="#FEFEFE" /><path d="M686.6 613.1h-8.1c-10.5-0.2-18.3-7.7-18.4-17.7-0.1-9.9 7.6-17.9 17.9-18.4 5.7-0.2 11.4-0.2 17.2 0 10.3 0.4 18.1 8.5 18 18.3-0.1 10-8 17.6-18.4 17.8-2.8 0.1-5.5 0-8.2 0z" fill="#030000" /><path d="M514.1 413.1c-42.2-0.1-76.6-35-76.5-77.5 0.2-42.2 34.7-76.9 76.7-76.9 42.1 0 76.8 34.9 76.7 77.4 0 42.5-34.6 77.1-76.9 77z" fill="#69CAFE" /></svg>