<svg class="svg-icon" style="width: 1em; height: 1em;vertical-align: middle;fill: currentColor;overflow: hidden;" viewBox="0 0 1024 1024" version="1.1" xmlns="http://www.w3.org/2000/svg"><path d="M487.333957 598.550098h69.248078v86.559097H487.333957z" fill="#51ABD8" /><path d="M71.799493 356.183826m-69.248078 0a69.248078 69.248078 0 1 0 138.496156 0 69.248078 69.248078 0 1 0-138.496156 0Z" fill="#B0BD58" /><path d="M262.280704 650.485156m-69.248077 0a69.248078 69.248078 0 1 0 138.496155 0 69.248078 69.248078 0 1 0-138.496155 0Z" fill="#B0BD58" /><path d="M521.957996 356.183826m-69.248078 0a69.248078 69.248078 0 1 0 138.496156 0 69.248078 69.248078 0 1 0-138.496156 0Z" fill="#B0BD58" /><path d="M833.570346 650.485156m-69.248078 0a69.248078 69.248078 0 1 0 138.496156 0 69.248078 69.248078 0 1 0-138.496156 0Z" fill="#B0BD58" /><path d="M954.753482 96.508534m-69.248078 0a69.248078 69.248078 0 1 0 138.496156 0 69.248078 69.248078 0 1 0-138.496156 0Z" fill="#B0BD58" /><path d="M521.905999 96.508534c-143.411877 0-259.677292 116.265415-259.677292 259.677291s116.265415 259.677292 259.677292 259.677292 259.677292-116.265415 259.677292-259.677292S665.333875 96.508534 521.905999 96.508534z m0 450.106505c-105.170043 0-190.429214-85.261171-190.429214-190.429214s85.261171-190.429214 190.429214-190.429214 190.429214 85.261171 190.429214 190.429214-85.259171 190.429214-190.429214 190.429214z" fill="#FFC117" /><path d="M601.817473 109.161817L578.722781 174.410121c100.512307 30.954247 156.897113 137.54221 125.926867 238.054517s-137.54221 156.897113-238.054516 125.926867a198.374764 198.374764 0 0 1-14.923155-5.279701l-23.110691 65.214306c133.82042 51.38109 283.965916-15.441125 335.347006-149.261545 51.38109-133.82042-15.425126-283.983915-149.245547-335.365005a257.983388 257.983388 0 0 0-12.845272-4.537743z" fill="#E97424" /><path d="M452.709918 685.109195h138.494156v294.301331h-138.494156z" fill="#1588C9" /><path d="M954.701485 27.260456c-38.119841-0.137992-69.144084 30.658263-69.282076 68.798103-0.103994 30.53827 19.856875 57.526742 49.097219 66.338243l-78.335563 422.962043a66.20225 66.20225 0 0 0-58.218702 6.023659l-62.962434-58.478688c97.742464-117.669335 81.591379-292.309443-36.077956-390.051907S406.608529 61.26053 308.866066 178.929865c-91.874796 110.605735-83.841251 273.110531 18.470953 374.108811l-31.524214 37.255889a66.832215 66.832215 0 0 0-63.412408-2.025885l-103.750124-192.715084c22.608719-31.922192 15.079146-76.137688-16.845046-98.764406s-76.137688-15.079146-98.764406 16.845046c-22.608719 31.922192-15.079146 76.137688 16.845046 98.764405a70.855987 70.855987 0 0 0 71.739937 6.00766l103.750123 192.715085c-22.002754 31.352224-14.437182 74.595775 16.897043 96.616527 31.352224 22.002754 74.595775 14.437182 96.616528-16.897043a69.340073 69.340073 0 0 0 2.041884-76.62166l32.632152-38.553816a275.504395 275.504395 0 0 0 116.405407 52.473028v39.677752h-17.31102c-9.555459 0-17.311019 7.755561-17.311019 17.31102v294.301331c0 9.555459 7.755561 17.311019 17.311019 17.311019h138.494156c9.555459 0 17.311019-7.755561 17.311019-17.311019V685.127194c0-9.555459-7.755561-17.311019-17.311019-17.31102h-17.31102v-39.677752a276.008367 276.008367 0 0 0 137.248226-70.182025l62.668451 58.202703a68.32613 68.32613 0 0 0-9.487463 34.346055c0 38.241834 31.006244 69.248078 69.248078 69.248078s69.248078-31.006244 69.248078-69.248078a68.570116 68.570116 0 0 0-15.459125-43.07156L969.400653 164.130704c37.341885-8.309529 60.886551-45.287435 52.61102-82.62932-7.013603-31.580211-34.95402-54.102936-67.310188-54.240928zM37.175454 356.183826c0-19.128917 15.493122-34.624039 34.624039-34.624039s34.624039 15.493122 34.624039 34.624039-15.493122 34.624039-34.624039 34.624038-34.624039-15.511121-34.624039-34.624038z m225.053253 328.925369c-19.128917 0-34.624039-15.493122-34.624039-34.624039s15.493122-34.624039 34.624039-34.624039 34.624039 15.493122 34.624039 34.624039-15.495122 34.624039-34.624039 34.624039z m311.61235 276.988311h-103.870116V702.420214h103.870116v259.677292z m-34.624039-328.923369v34.624038H504.59298v-34.624038h34.624038z m-17.311019-34.624039c-134.062407 0.207988-242.884243-108.301866-243.092231-242.366272-0.207988-134.062407 108.301866-242.884243 242.366272-243.092232s242.884243 108.301866 243.092231 242.366273a242.694254 242.694254 0 0 1-54.688902 153.849286l-25.482557-23.66466c72.691883-90.314885 58.410692-222.439401-31.906193-295.131284s-222.421402-58.410692-295.115284 31.888194-58.410692 222.439401 31.906193 295.131284c79.929473 64.348355 194.670974 61.456519 271.276634-6.821614l25.414561 23.612663a241.102344 241.102344 0 0 1-163.770724 64.228362z m0-207.742234c-19.128917 0-34.624039-15.493122-34.624039-34.624038s15.493122-34.624039 34.624039-34.624039 34.624039 15.493122 34.624039 34.624039-15.495122 34.624039-34.624039 34.624038z m-33.584098 25.570552a67.130198 67.130198 0 0 0 69.144084-1.089938l77.349619 71.843931c-60.522572 52.577022-149.349541 56.402805-214.147871 9.193479l67.654168-79.947472z m93.344713-25.846536a68.32213 68.32213 0 0 0 9.487463-34.346055c0-38.241834-31.006244-69.248078-69.248078-69.248077s-69.248078 31.006244-69.248078 69.248077a68.578116 68.578116 0 0 0 10.543403 36.353941l-68.398126 80.829422c-64.902324-70.200024-60.608567-179.73182 9.591457-244.634144s179.73182-60.626566 244.634144 9.573458c57.474745 62.166479 61.560513 156.793119 9.643453 223.68533l-77.005638-71.461952z m251.851735 294.577315c-19.128917 0-34.624039-15.493122-34.624039-34.624039s15.493122-34.624039 34.624039-34.624039 34.624039 15.493122 34.624039 34.624039-15.493122 34.624039-34.624039 34.624039z m121.183136-553.978622c-19.128917 0-34.624039-15.493122-34.624039-34.624039s15.493122-34.624039 34.624039-34.624039 34.624039 15.493122 34.624039 34.624039-15.495122 34.624039-34.624039 34.624039z" fill="" /></svg>