<?xml version="1.0" standalone="no"?>
<!DOCTYPE svg PUBLIC "-//W3C//DTD SVG 20010904//EN"
 "http://www.w3.org/TR/2001/REC-SVG-20010904/DTD/svg10.dtd">
<svg version="1.0" xmlns="http://www.w3.org/2000/svg"
 width="300.000000pt" height="223.000000pt" viewBox="0 0 300.000000 223.000000"
 preserveAspectRatio="xMidYMid meet">
<metadata>
Created by potrace 1.10, written by Peter Selinger 2001-2011
</metadata>
<g transform="translate(0.000000,223.000000) scale(0.100000,-0.100000)"
fill="#000000" stroke="none">
<path d="M1089 2172 c-44 -18 -43 -16 -31 -51 7 -20 7 -33 1 -37 -7 -4 -6 -10
0 -18 8 -9 4 -16 -14 -26 -14 -7 -25 -19 -25 -27 0 -7 -7 -13 -16 -13 -12 0
-15 -6 -11 -21 6 -23 -29 -60 -66 -69 -13 -4 -23 -15 -25 -28 -4 -24 -55 -72
-78 -72 -14 0 -19 -21 -7 -33 3 -4 8 -19 9 -34 2 -15 8 -29 14 -31 5 -2 10
-14 10 -27 0 -18 -5 -22 -27 -21 -16 1 -34 5 -41 10 -17 10 -27 -1 -36 -36 -5
-20 -2 -28 12 -32 25 -8 17 -66 -9 -73 -21 -6 -25 -19 -7 -25 6 -2 8 -10 4
-16 -5 -9 -13 -9 -26 -2 -24 13 -30 13 -30 0 0 -11 -13 -28 -44 -60 -20 -20
-20 -20 -43 2 -15 14 -27 19 -31 12 -4 -5 -20 -11 -36 -12 -17 -1 -32 -6 -36
-11 -10 -18 -91 -31 -111 -18 -14 9 -22 7 -38 -7 -12 -11 -21 -14 -21 -8 0 7
-8 6 -25 -1 -18 -9 -25 -20 -25 -40 0 -19 -4 -27 -12 -24 -7 2 -13 11 -13 20
0 27 -22 42 -39 28 -7 -6 -25 -14 -37 -16 -45 -9 -93 -45 -60 -45 12 0 11 -41
-1 -56 -5 -6 -4 -23 1 -36 7 -20 5 -28 -11 -42 -11 -10 -17 -23 -14 -31 2 -7
-2 -16 -10 -19 -13 -5 -12 -9 2 -31 9 -14 24 -25 33 -24 44 4 61 -2 61 -20 0
-11 5 -21 12 -23 14 -5 22 -48 8 -48 -5 0 -9 -11 -8 -25 3 -27 8 -31 25 -14 8
8 12 0 15 -25 3 -25 0 -36 -9 -36 -7 0 -13 -6 -14 -12 -1 -7 -4 -2 -8 11 -7
25 -31 42 -31 21 0 -6 5 -8 10 -5 6 3 10 -3 10 -14 0 -12 -4 -21 -10 -21 -5 0
-10 6 -10 13 0 6 -7 -1 -15 -16 -14 -27 -11 -57 5 -57 12 0 31 26 24 33 -3 3
-3 11 2 18 5 9 10 6 15 -9 9 -24 2 -52 -12 -52 -5 0 -9 -7 -9 -15 0 -8 -7 -15
-15 -15 -8 0 -15 -4 -15 -10 0 -5 -9 -18 -20 -28 -11 -10 -21 -29 -23 -43 -3
-16 -10 -23 -21 -21 -9 2 -16 -4 -16 -13 0 -8 -4 -15 -10 -15 -5 0 -10 -13
-10 -29 0 -17 -5 -33 -10 -36 -6 -3 -10 -19 -10 -35 0 -23 10 -35 55 -65 30
-20 55 -42 55 -48 0 -25 64 -65 75 -46 4 5 11 7 16 4 5 -4 15 -3 21 1 7 5 19
9 28 10 8 1 23 5 32 9 12 5 25 -2 43 -21 24 -26 26 -26 45 -9 14 13 23 15 32
7 7 -5 50 -10 96 -10 81 1 83 1 77 22 -18 55 1 119 30 97 5 -5 24 -11 40 -15
17 -4 37 -14 47 -22 9 -9 22 -14 30 -13 30 6 84 -14 105 -39 19 -22 29 -26 71
-23 45 2 52 -1 69 -26 11 -15 23 -36 26 -45 8 -22 37 -24 37 -2 0 13 7 15 33
10 17 -4 47 -10 65 -13 19 -3 36 -12 39 -19 3 -8 13 -14 22 -14 14 -1 14 -2
-1 -11 -26 -15 -23 -56 5 -64 51 -15 107 -48 107 -63 0 -49 67 -61 96 -17 22
34 77 38 139 10 28 -13 57 -30 64 -39 15 -18 51 -22 51 -5 0 10 16 7 59 -9 10
-4 13 0 9 16 -7 26 22 55 46 46 10 -4 25 1 37 11 10 10 29 19 42 21 12 1 22 3
22 4 0 1 14 3 30 4 19 1 35 -5 43 -16 10 -13 21 -16 40 -12 35 9 34 6 18 46
-9 20 -24 38 -34 41 -27 6 -34 70 -28 222 8 166 18 196 100 283 53 56 90 75
130 68 28 -5 36 -1 69 39 21 25 44 45 50 45 14 0 32 13 110 78 52 43 98 62
130 54 10 -3 16 -10 13 -17 -7 -19 15 -42 47 -49 20 -5 27 -3 27 8 0 8 21 27
47 42 61 36 92 65 76 71 -18 6 -16 16 7 43 16 19 25 21 56 16 33 -7 35 -6 29
13 -3 11 -2 28 3 38 6 10 12 33 13 52 3 26 18 48 58 88 l54 53 -31 38 c-16 20
-35 36 -41 34 -7 -1 -11 17 -11 48 0 27 -4 50 -8 50 -5 0 -15 11 -22 25 -14
27 -88 75 -114 75 -9 0 -16 -8 -16 -20 0 -11 -4 -20 -10 -20 -5 0 -10 9 -10
20 0 14 -7 20 -21 20 -24 0 -49 -22 -49 -44 0 -21 -12 -20 -38 4 -12 11 -35
23 -52 26 -16 4 -30 12 -31 18 -2 43 -10 70 -22 79 -8 7 -18 26 -22 42 -3 17
-13 37 -21 46 -17 19 -45 109 -38 121 3 4 -2 11 -10 14 -9 3 -13 10 -10 15 3
5 -1 9 -8 9 -7 0 -22 11 -32 25 -10 14 -26 25 -35 24 -9 0 -11 -3 -4 -5 16 -7
91 -82 87 -87 -8 -8 29 -112 42 -120 34 -19 25 -127 -11 -127 -18 0 -19 -19
-1 -43 8 -10 12 -26 9 -36 -3 -10 0 -21 5 -25 12 -7 0 -70 -17 -90 -16 -19
-57 -15 -104 9 -32 16 -40 17 -47 6 -4 -8 -6 -20 -3 -28 4 -11 -5 -14 -43 -12
-39 3 -56 9 -88 38 -21 20 -39 35 -40 34 -1 -1 -14 -6 -29 -12 -26 -10 -28 -9
-22 9 3 11 2 20 -3 20 -5 0 -18 8 -28 18 -15 14 -19 30 -18 82 1 52 -3 69 -19
87 -12 14 -18 30 -14 43 4 14 -4 31 -24 53 -34 36 -33 36 -15 63 8 11 17 38
21 60 4 21 14 45 23 52 9 6 13 12 9 12 -4 0 -3 9 3 21 11 20 12 20 26 2 13
-17 15 -17 37 8 29 33 71 59 83 51 6 -4 15 -25 22 -47 7 -22 15 -45 19 -51 12
-18 75 -4 80 17 7 25 30 24 36 -1 4 -17 4 -16 3 2 -1 30 -41 38 -48 10 -3 -11
-17 -21 -33 -24 -23 -5 -29 -1 -41 28 -8 18 -14 42 -14 53 0 25 -26 34 -53 19
-12 -7 -27 -11 -34 -10 -7 2 -15 -8 -19 -22 -7 -29 -30 -41 -38 -20 -3 8 -10
14 -15 14 -12 0 -47 -72 -61 -125 -5 -22 -14 -47 -20 -55 -9 -13 -11 -13 -20
0 -5 8 -10 30 -10 48 0 19 -8 40 -20 52 -11 11 -20 30 -20 41 0 17 -5 20 -24
17 -15 -3 -23 -1 -20 6 3 7 -2 20 -10 31 -14 19 -16 19 -55 -22 -23 -23 -41
-51 -41 -63 0 -11 -4 -20 -10 -20 -5 0 -13 -12 -16 -27 -13 -51 -44 -83 -81
-83 -18 0 -33 5 -33 10 0 14 -31 12 -62 -4 -26 -14 -28 -13 -28 4 0 10 -4 21
-9 24 -5 4 -5 22 1 45 9 35 7 44 -12 71 -12 17 -20 36 -17 43 6 18 -29 73 -44
68 -8 -2 -27 -4 -44 -4 -16 0 -32 -3 -35 -6 -3 -3 -15 -12 -28 -19 -21 -11
-26 -9 -65 32 -48 49 -84 60 -138 38z m128 -45 c44 -49 57 -53 96 -25 22 16
31 18 37 8 5 -9 9 -9 14 -1 12 18 56 13 58 -6 1 -10 2 -25 4 -33 1 -8 2 -20 3
-26 1 -5 10 -20 21 -32 18 -19 19 -27 11 -64 -7 -27 -7 -44 -1 -46 6 -2 10
-11 10 -21 0 -9 5 -22 12 -29 17 -17 -17 -40 -49 -34 -16 3 -36 -5 -61 -25
-20 -15 -49 -34 -65 -41 l-27 -12 19 -50 c21 -56 21 -56 -40 -63 -19 -2 -45
-10 -57 -16 -12 -6 -34 -8 -48 -5 -25 6 -26 5 -20 -19 3 -15 1 -29 -5 -32 -6
-4 -13 2 -16 14 -5 20 -43 31 -43 13 0 -4 -12 -15 -28 -24 -33 -20 -59 -6 -54
30 3 21 2 21 -23 10 -23 -10 -29 -10 -40 5 -7 9 -17 17 -23 17 -6 0 -14 9 -17
20 -3 11 -11 20 -16 20 -17 0 -9 -13 29 -47 27 -25 43 -32 60 -28 20 5 23 3
18 -13 -5 -14 1 -22 20 -31 23 -10 30 -8 61 15 35 27 43 25 56 -11 7 -19 38
17 32 36 -8 23 10 25 19 3 6 -15 9 -15 29 3 12 12 41 24 63 28 36 5 42 4 47
-14 3 -13 13 -21 26 -21 26 0 26 -5 1 -32 -13 -14 -17 -25 -10 -32 12 -12 -6
-36 -26 -36 -8 0 -14 -5 -14 -11 0 -5 -4 -8 -9 -4 -5 3 -12 1 -15 -3 -3 -5
-17 -7 -31 -5 -13 3 -32 2 -41 -1 -15 -6 -15 -8 1 -32 16 -25 16 -26 -12 -52
-15 -14 -34 -26 -42 -27 -18 0 -27 -25 -10 -25 7 0 5 -6 -6 -14 -11 -8 -25
-12 -32 -9 -7 3 -16 -2 -19 -10 -5 -13 -9 -14 -25 -4 -17 10 -22 9 -32 -4 -7
-9 -19 -18 -27 -21 -11 -4 -9 -8 10 -16 l25 -10 -30 -7 c-16 -5 -33 -13 -36
-18 -4 -6 -17 -1 -30 12 -13 12 -30 19 -38 16 -8 -3 -37 -8 -66 -11 -44 -5
-51 -4 -53 13 -6 68 -13 79 -53 88 -18 4 -27 10 -22 14 5 3 19 20 31 37 24 35
13 61 -19 44 -23 -13 -34 14 -14 34 8 8 15 20 15 26 0 8 6 8 20 0 26 -14 43
-4 37 21 -3 11 -1 19 3 19 5 0 14 17 20 38 9 32 8 39 -8 50 -13 8 -18 21 -14
37 5 27 22 35 22 10 0 -11 5 -12 24 -5 13 5 27 6 30 3 3 -3 12 -1 19 6 8 6 22
9 31 5 9 -3 16 -1 16 6 0 6 -4 9 -8 6 -12 -7 -26 6 -44 42 -21 45 -18 75 9 87
12 5 24 16 28 25 14 37 37 70 50 70 23 0 77 51 71 67 -4 9 10 29 33 51 40 37
45 55 27 108 -5 16 0 23 25 35 47 22 83 13 126 -34z m585 -77 c-2 -19 2 -22
22 -18 21 4 26 0 31 -24 4 -16 12 -31 19 -34 6 -2 13 -18 14 -35 3 -39 14 -59
56 -105 24 -26 32 -43 28 -61 -3 -16 2 -30 15 -42 16 -16 19 -30 17 -94 -2
-74 -1 -76 26 -87 21 -9 26 -16 22 -32 -4 -17 -2 -19 18 -13 32 10 54 13 62 8
9 -5 -21 -54 -40 -66 -10 -7 -10 -12 -1 -23 6 -7 15 -11 20 -8 5 3 9 0 9 -5 0
-6 8 -11 19 -11 10 0 24 -7 31 -15 11 -13 8 -19 -13 -38 -14 -12 -27 -31 -29
-42 -2 -13 -11 -19 -23 -18 -20 2 -39 -20 -40 -47 0 -15 -28 -17 -80 -8 -18 3
-20 -2 -20 -48 l0 -52 -32 1 c-20 1 -33 6 -33 14 0 11 -13 18 -22 11 -2 -1
-13 4 -26 11 -17 9 -27 9 -37 1 -35 -29 -115 38 -120 102 -2 18 -10 37 -19 43
-9 7 -13 15 -10 18 7 7 -26 77 -37 77 -4 0 -19 10 -33 23 -13 12 -37 29 -53
37 -15 8 -40 22 -55 32 -31 21 -78 20 -95 -2 -9 -10 -15 -12 -20 -4 -5 6 -16
13 -25 17 -22 8 -23 26 -3 33 8 4 15 15 15 25 0 14 -7 19 -25 19 -26 0 -33 18
-14 37 9 9 8 21 -5 46 -20 44 -20 67 0 67 9 0 27 11 40 25 13 14 28 25 34 25
5 0 10 4 10 9 0 5 14 8 32 7 35 -3 68 19 68 45 0 18 52 34 58 18 2 -5 23 -9
47 -9 46 0 55 8 86 83 6 15 15 27 20 27 5 0 9 11 9 23 0 26 30 67 49 67 6 0
11 5 11 11 0 6 6 9 13 6 6 -2 11 -14 9 -27z m714 -401 c-4 -37 -3 -39 20 -33
17 4 37 -2 65 -21 43 -28 46 -28 63 7 15 31 46 36 46 9 0 -14 6 -21 20 -21 13
0 20 7 20 20 0 11 6 20 13 20 8 0 24 -9 37 -20 13 -11 29 -20 36 -20 7 0 18
-13 26 -30 7 -16 16 -30 20 -30 5 0 8 -21 8 -46 0 -37 4 -47 20 -51 11 -3 20
-8 20 -12 0 -4 9 -17 20 -29 12 -12 16 -22 10 -22 -5 0 -10 -6 -10 -13 0 -6
-20 -28 -44 -47 -46 -36 -45 -34 -59 -158 -1 -15 -7 -20 -17 -16 -37 14 -56 6
-76 -31 -17 -31 -17 -37 -4 -45 11 -7 11 -10 2 -10 -7 0 -23 -9 -34 -20 -17
-15 -24 -17 -30 -8 -7 12 -12 4 -9 -15 1 -4 -10 -12 -23 -17 -13 -5 -26 -16
-28 -24 -2 -13 -7 -14 -28 -3 -14 7 -25 19 -26 27 -2 35 -5 37 -41 33 -41 -4
-117 -44 -130 -67 -9 -16 -79 -66 -92 -66 -5 0 -26 -19 -48 -42 -34 -38 -44
-43 -83 -43 -32 0 -55 -7 -78 -25 -21 -16 -35 -21 -40 -14 -4 6 -20 14 -37 18
-50 12 -85 30 -85 44 0 8 -7 11 -17 8 -21 -7 -37 3 -46 27 -9 24 -30 22 -22
-3 5 -16 2 -20 -14 -20 -12 0 -21 -6 -21 -12 -1 -42 -42 -45 -55 -5 -4 14 -8
17 -12 10 -7 -18 -30 -16 -51 5 -17 17 -18 52 -1 52 5 0 9 6 9 13 0 7 9 18 20
25 21 13 28 66 10 77 -15 9 -12 72 4 78 7 3 23 -1 35 -10 20 -13 26 -13 61 1
22 9 49 25 60 36 14 14 27 18 49 14 l29 -6 -4 56 c-2 31 -2 56 1 56 2 0 15 -5
29 -11 37 -17 78 -4 74 24 -2 18 3 23 25 25 15 2 27 8 27 13 0 6 10 9 23 7 15
-2 21 -9 19 -20 -3 -21 9 -23 26 -6 9 9 16 8 30 -5 20 -18 57 -24 47 -7 -3 5
-2 16 2 24 8 14 12 16 32 16 5 0 13 9 16 20 7 23 32 26 57 6 13 -10 15 -15 6
-24 -17 -17 3 -35 33 -30 28 4 59 -19 52 -38 -3 -9 2 -14 14 -14 10 0 30 -11
45 -25 15 -14 32 -25 37 -25 6 0 16 -18 22 -40 14 -45 2 -70 -33 -70 -10 0
-17 -4 -14 -9 9 -14 46 -1 57 22 16 30 -5 91 -39 112 -15 10 -31 24 -35 32 -4
7 -15 13 -22 13 -8 0 -15 6 -15 13 0 24 -35 44 -69 39 -31 -4 -32 -3 -22 15
22 42 -56 74 -81 33 -7 -11 -19 -20 -26 -20 -7 0 -18 -11 -24 -25 -14 -30 -28
-32 -35 -5 -4 16 -9 18 -24 9 -15 -7 -21 -6 -25 6 -3 8 -15 15 -25 15 -25 0
-24 10 6 39 14 13 25 30 25 38 0 11 -58 45 -82 47 -15 2 -20 16 -5 16 9 0 17
6 17 14 0 7 7 20 16 27 14 11 18 10 30 -6 20 -27 129 -29 129 -3 0 29 13 31
50 9 45 -26 77 -27 99 -2 10 11 24 17 32 14 12 -4 13 -1 3 21 -9 19 -9 29 0
39 9 11 8 17 -4 27 -9 7 -14 19 -11 27 3 8 -1 25 -10 39 -14 20 -14 24 -2 24
8 0 20 12 27 27 12 27 13 27 27 9 8 -11 12 -35 10 -57z m-1038 -155 c38 -18
40 -24 10 -18 -21 4 -21 4 -3 -5 11 -4 23 -7 27 -4 10 5 88 -45 88 -57 0 -6 6
-10 13 -10 15 0 52 -58 43 -67 -3 -4 1 -14 9 -24 9 -9 17 -27 18 -40 4 -42 58
-108 96 -115 22 -4 36 -2 41 6 6 9 12 9 29 1 11 -7 21 -8 21 -4 0 4 5 2 11 -4
19 -19 1 -48 -41 -67 -31 -13 -44 -15 -54 -7 -8 7 -23 14 -35 16 -16 3 -23 -3
-28 -23 -11 -40 -10 -45 4 -67 18 -27 16 -49 -5 -68 -20 -18 -138 -18 -183 1
-30 12 -49 0 -49 -31 0 -16 -3 -17 -15 -7 -8 6 -23 9 -34 5 -26 -8 -69 31 -52
48 16 16 14 34 -4 34 -10 0 -14 -10 -12 -35 2 -33 0 -35 -31 -36 -19 -1 -38 5
-44 11 -8 10 -15 7 -29 -11 -11 -13 -19 -31 -19 -40 0 -9 -8 -16 -19 -16 -12
0 -21 -9 -25 -25 -4 -14 -13 -25 -21 -25 -8 0 -15 -5 -15 -11 0 -7 -7 -8 -17
-4 -10 4 -23 8 -30 9 -7 1 -16 5 -19 9 -16 15 -36 7 -31 -13 3 -10 -1 -24 -9
-31 -11 -9 -16 -6 -23 12 -20 46 -40 65 -59 53 -28 -18 -27 -42 2 -50 38 -9
32 -22 -16 -31 -49 -10 -64 -38 -28 -51 20 -7 20 -9 5 -22 -14 -11 -18 -10
-31 9 -9 12 -19 19 -24 16 -5 -3 -11 -1 -14 3 -8 14 -56 2 -56 -14 0 -8 -6
-11 -14 -8 -15 6 -29 -40 -23 -80 1 -13 -7 -22 -28 -29 -48 -16 -69 -42 -62
-76 6 -28 5 -29 -21 -21 -15 4 -34 11 -43 14 -9 4 -21 0 -28 -8 -14 -16 -18
-73 -7 -98 7 -14 1 -16 -49 -15 -61 2 -69 11 -61 72 2 17 4 36 5 43 1 10 10
12 30 7 25 -5 30 -3 36 17 4 13 13 30 20 38 16 18 5 86 -13 83 -7 -2 -12 5
-12 15 0 9 -14 26 -30 37 -16 11 -30 23 -30 27 0 3 15 19 32 34 18 15 33 32
33 38 0 6 27 38 59 71 64 66 90 74 144 42 25 -15 36 -17 45 -8 6 6 7 11 2 11
-6 0 -4 4 3 9 7 4 14 19 16 32 4 41 24 67 61 81 27 9 35 17 33 33 -2 11 -9 19
-16 17 -6 -1 -12 5 -12 13 0 8 -5 15 -11 15 -14 0 -43 29 -36 36 3 3 -9 18
-26 34 -18 16 -29 31 -25 35 4 4 29 9 57 11 37 2 55 -1 67 -13 14 -15 19 -15
59 5 36 17 42 25 40 47 -3 21 0 25 13 20 25 -10 24 -10 70 9 38 17 54 38 35
49 -5 2 -2 2 5 0 7 -1 26 12 43 29 29 33 38 58 19 58 -5 0 -10 7 -10 15 0 13
10 15 50 12 39 -3 50 -1 50 11 0 9 7 13 20 9 15 -4 20 -1 18 11 -2 9 5 18 15
20 9 2 17 -1 17 -7 0 -6 -8 -8 -17 -5 -14 5 -15 4 -4 -4 12 -8 71 7 107 27 0
1 15 -6 32 -15z m-835 -85 c15 10 22 10 25 2 2 -6 15 -9 30 -6 15 3 21 2 14
-1 -6 -3 -9 -10 -6 -16 3 -5 -4 -20 -17 -34 -25 -27 -21 -36 17 -40 32 -4 33
-5 36 -37 1 -15 5 -27 9 -27 3 0 4 -11 1 -25 -3 -20 -1 -24 12 -19 9 3 16 2
16 -3 0 -6 10 -21 23 -35 12 -13 28 -36 36 -51 8 -15 18 -27 23 -27 4 0 17 -9
28 -20 21 -21 27 -35 11 -26 -5 4 -11 2 -13 -4 -1 -5 -14 -11 -28 -13 -16 -3
-26 -11 -28 -25 -2 -12 -8 -22 -13 -22 -6 0 -8 -9 -4 -19 3 -11 -1 -26 -10
-35 -10 -9 -13 -21 -9 -28 5 -7 -5 -4 -21 6 -16 11 -47 20 -70 22 -36 3 -44
-1 -76 -38 -36 -39 -37 -40 -72 -29 -20 7 -50 13 -67 13 -16 1 -30 5 -30 11 0
5 -7 6 -16 3 -11 -4 -22 1 -31 14 -12 16 -18 18 -35 9 -16 -9 -24 -7 -39 10
-10 11 -16 26 -13 34 3 8 1 18 -5 22 -6 3 -11 15 -11 26 0 11 -7 19 -17 19
-23 0 -53 29 -53 52 0 17 -13 24 -35 17 -5 -1 -31 -3 -57 -4 -48 -2 -71 16
-48 39 5 5 10 18 10 27 0 9 6 22 14 28 8 7 12 20 9 30 -2 10 0 34 5 54 7 23 6
39 0 45 -16 16 0 32 30 32 15 0 36 7 46 15 20 15 41 11 30 -6 -7 -13 14 -39
32 -39 9 0 14 11 14 30 0 29 8 35 38 31 8 -1 19 5 26 15 10 13 17 14 34 5 23
-12 107 2 118 20 3 5 18 9 34 9 16 0 32 5 36 12 5 8 13 4 26 -12 17 -21 22
-22 41 -11z m-413 -342 c0 -20 35 -57 53 -57 15 0 30 -33 27 -62 -2 -30 34
-60 64 -52 19 4 27 2 32 -11 4 -10 14 -15 25 -12 11 3 19 2 19 -3 0 -4 25 -10
55 -12 69 -6 89 -21 56 -44 -12 -9 -20 -22 -17 -30 3 -9 -2 -14 -14 -14 -11 0
-20 -6 -20 -13 0 -7 -10 -21 -22 -31 -21 -18 -21 -19 -2 -33 57 -41 59 -44 47
-49 -15 -7 -18 -44 -4 -44 16 0 22 18 9 23 -7 3 -8 6 -3 6 6 0 15 -3 21 -7 14
-9 27 -62 15 -62 -5 0 -14 -13 -21 -30 -10 -25 -16 -28 -40 -23 -27 5 -29 2
-36 -31 -3 -21 -4 -53 -1 -72 6 -38 -2 -42 -37 -18 -23 14 -25 14 -39 -6 -12
-18 -17 -19 -24 -7 -15 26 -49 38 -77 27 -14 -5 -26 -7 -26 -4 0 3 -5 2 -12
-2 -7 -4 -25 -9 -42 -11 -22 -2 -36 4 -58 29 -15 17 -28 35 -28 40 0 4 -6 8
-13 8 -8 0 -24 9 -37 20 -13 11 -27 20 -32 20 -4 0 -8 14 -8 30 0 17 5 30 10
30 6 0 10 12 10 28 1 38 20 62 50 62 6 0 10 9 10 20 0 24 38 80 54 80 17 0 48
73 40 93 -5 13 -1 20 15 24 14 4 20 11 17 20 -3 8 -6 28 -6 45 0 25 -3 29 -20
25 -24 -6 -27 8 -4 17 12 5 14 10 5 20 -6 7 -8 16 -4 19 3 4 -2 16 -11 26 -10
11 -15 25 -11 30 9 16 35 14 35 -2z m1334 -151 c22 -9 37 -11 44 -4 13 13 84
-1 79 -16 -17 -46 -18 -56 -3 -56 9 0 16 -6 16 -14 0 -22 17 -28 40 -16 16 8
20 8 20 -4 0 -13 20 -26 41 -26 5 0 14 11 21 25 6 13 18 26 27 28 20 4 74 -13
83 -27 4 -6 11 -11 15 -12 17 -1 98 -28 106 -34 5 -4 -10 -34 -33 -66 -47 -67
-69 -133 -62 -186 2 -21 2 -38 -1 -38 -3 0 -28 12 -56 27 -44 22 -55 24 -77
14 -14 -6 -28 -20 -31 -31 -5 -18 -14 -19 -127 -17 l-121 2 4 -30 c8 -61 6
-69 -14 -73 -11 -3 -31 -13 -45 -24 -24 -19 -25 -19 -28 -1 -2 10 -16 28 -32
41 -22 17 -34 20 -52 13 -27 -10 -58 2 -58 23 0 8 -7 19 -15 26 -19 16 -12 26
25 33 24 5 30 12 30 31 0 14 -8 30 -17 35 -16 9 -16 10 3 11 18 0 20 5 17 28
-3 15 -7 34 -10 42 -9 22 -10 28 -12 50 -1 13 -8 20 -20 20 -11 0 -23 5 -26
10 -3 6 -16 10 -29 10 -45 0 -76 62 -56 111 9 20 19 29 35 29 17 0 22 5 19 18
-6 22 19 57 35 48 6 -4 9 -12 6 -17 -7 -11 8 -12 19 -2 11 11 76 11 76 0 0 -5
15 -7 35 -4 19 3 37 1 40 -4 10 -15 25 -10 25 9 0 35 14 39 64 18z m-552 -103
c10 -9 18 -24 18 -33 0 -21 23 -32 46 -23 10 4 14 13 10 28 -6 22 -5 23 27 12
17 -7 35 -16 39 -22 4 -6 13 -2 22 10 14 19 15 18 21 -15 7 -40 31 -60 93 -80
39 -12 47 -23 43 -57 -1 -7 2 -13 7 -13 15 0 12 -58 -4 -64 -19 -7 -18 -26 2
-26 10 0 14 -7 12 -22 -2 -16 -11 -24 -30 -26 -32 -4 -44 -29 -24 -51 8 -9 14
-20 13 -26 -3 -19 51 -37 73 -25 16 9 25 6 47 -14 15 -14 25 -27 22 -30 -2 -3
-24 -6 -48 -7 -29 -2 -45 -9 -52 -21 -5 -10 -16 -18 -23 -18 -8 0 -27 -7 -42
-15 -38 -19 -46 -19 -74 5 -13 11 -35 20 -50 20 -15 0 -33 6 -39 13 -14 17
-71 10 -71 -9 0 -8 -4 -14 -10 -14 -5 0 -10 8 -10 18 0 9 -11 30 -24 45 -22
26 -30 28 -77 26 -45 -3 -53 0 -60 18 -5 15 -24 27 -60 37 -28 9 -54 14 -58
12 -14 -9 -40 22 -46 57 -6 30 -4 37 9 37 9 0 16 4 16 10 0 5 11 12 24 16 31
7 61 39 47 49 -6 3 -11 12 -11 19 0 17 44 64 61 66 25 4 59 -12 59 -26 0 -18
28 -18 46 1 17 16 11 35 -12 35 -29 0 -13 20 26 30 21 6 42 16 46 22 7 10 -15
33 -39 41 -11 3 -1 27 10 27 4 0 15 -7 25 -17z m887 -329 l51 -25 0 -82 c0
-112 8 -155 31 -162 10 -3 24 -19 32 -35 14 -26 13 -29 -7 -34 -13 -4 -26 0
-34 11 -12 17 -82 27 -82 13 0 -5 -8 -6 -18 -4 -9 3 -27 -4 -39 -15 -12 -12
-29 -18 -37 -15 -23 9 -68 -25 -61 -47 6 -17 3 -18 -21 -9 -19 7 -30 7 -40 -1
-11 -9 -20 -7 -40 7 -93 66 -170 76 -215 28 -21 -23 -63 -32 -72 -17 -2 5 -7
20 -11 35 -5 23 -3 25 16 20 17 -4 20 -2 15 12 -4 10 -7 22 -7 27 0 17 -19 9
-25 -11 -7 -23 -37 -26 -55 -6 -6 8 -24 16 -38 18 -19 2 -28 10 -30 25 -3 19
4 25 42 35 25 7 46 16 46 20 0 4 10 8 21 8 12 0 28 8 35 18 9 12 27 17 69 18
37 0 63 6 76 17 10 9 25 17 33 17 25 0 37 26 30 69 l-6 40 112 -5 112 -5 28
31 c15 16 30 30 33 30 3 0 28 -11 56 -26z"/>
<path d="M1120 1268 c0 -8 11 -27 25 -42 14 -15 25 -32 25 -38 0 -6 7 -20 17
-30 9 -11 11 -18 5 -18 -7 0 -12 -4 -12 -10 0 -5 7 -10 15 -10 17 0 20 -16 5
-25 -18 -11 -10 -22 34 -46 25 -13 50 -33 57 -45 11 -22 57 -49 67 -40 2 3 -7
10 -22 16 -14 5 -31 21 -38 35 -6 14 -16 25 -22 25 -20 0 -81 43 -68 47 15 6
16 43 1 43 -5 0 -8 4 -5 9 3 5 -1 14 -9 21 -8 7 -15 21 -15 32 0 10 -7 21 -15
24 -8 4 -15 11 -15 18 0 6 -7 20 -15 30 -12 16 -15 17 -15 4z"/>
<path d="M750 97 c0 -9 20 -12 77 -10 43 1 83 -3 90 -9 7 -6 13 -6 13 -1 0 5
23 8 50 7 37 -2 50 2 50 12 0 11 -26 14 -140 14 -107 0 -140 -3 -140 -13z"/>
</g>
</svg>
