<svg class="svg-icon" style="width: 1.1279296875em; height: 1em;vertical-align: middle;fill: currentColor;overflow: hidden;" viewBox="0 0 1155 1024" version="1.1" xmlns="http://www.w3.org/2000/svg"><path d="M29.96609 614.003101s218.294574-109.147287 565.581395-109.147287c337.364341 0 525.891473 49.612403 525.891473 49.612403l-39.689922 218.294574s-456.434109 59.534884-476.27907 59.534883-525.891473-9.922481-535.813954-59.534883-39.689922-158.75969-39.689922-158.75969z" fill="#D2EAFF" /><path d="M972.403299 0H180.589346A180.986047 180.986047 0 0 0 0.000199 181.184496V687.032558a180.787597 180.787597 0 0 0 180.589147 180.589147H972.403299a180.787597 180.787597 0 0 0 180.589148-180.589147V181.184496A180.986047 180.986047 0 0 0 972.403299 0z m108.353489 686.635659A108.155039 108.155039 0 0 1 972.403299 795.386047H180.589346a108.353488 108.353488 0 0 1-108.353489-108.353489V181.184496A108.551938 108.551938 0 0 1 180.589346 72.632558H972.403299a108.353488 108.353488 0 0 1 108.353489 108.551938z" fill="#2E85ED" /><path d="M956.130431 518.945736h-71.44186L704.893222 176.223256a36.316279 36.316279 0 0 0-65.686822 3.373643l-158.75969 401.265117-92.27907-211.348838a36.117829 36.117829 0 0 0-34.133333-21.829457 36.713178 36.713178 0 0 0-32.942636 23.615504l-54.772093 147.844961H198.449811a36.117829 36.117829 0 1 0 0 72.235659h93.866667a36.117829 36.117829 0 0 0 33.934883-23.615504L357.209501 480.644961l90.691473 208.768992a36.316279 36.316279 0 0 0 33.141085 21.829458A36.316279 36.316279 0 0 0 515.969191 688.421705l162.331783-409.004651 153.6 292.316279a35.91938 35.91938 0 0 0 31.950387 19.844962h93.072869a36.117829 36.117829 0 1 0 0-72.235659z m-68.663566 427.857365H265.922679a36.117829 36.117829 0 1 0 0 72.235659h621.544186a36.117829 36.117829 0 0 0 0-72.235659z" fill="#2E85ED" /></svg>