<svg class="svg-icon" style="width: 1em;height: 1em;vertical-align: middle;fill: currentColor;overflow: hidden;" viewBox="0 0 1024 1024" version="1.1" xmlns="http://www.w3.org/2000/svg"><path d="M258.73 603.89c-86.7-15.82-118.06-49.84-129.04-68.72-13.19-22.67-14.08-49.46-2.73-81.89 8.39-23.96 25.41-38.8 52.04-45.38 25.1-6.2 53.35-3.5 72.63-0.14 8.71 1.52 16.99-4.31 18.51-13.02 1.52-8.71-4.31-16.99-13.02-18.51-22.3-3.88-55.29-6.93-85.79 0.6-36.89 9.11-62.68 31.89-74.58 65.88-14.42 41.21-12.65 77.73 5.27 108.55 14.3 24.58 38.66 44.88 72.39 60.31 28.41 13 58.41 20.11 78.57 23.79 0.97 0.18 1.94 0.26 2.89 0.26 7.58 0 14.31-5.41 15.72-13.13 1.6-8.68-4.16-17.01-12.86-18.6zM959.24 442.71c-16.12-46.05-56.1-70.44-115.61-70.53h-0.33c-23 0-44.49 3.67-59.44 7.05V352c0-8.84-7.16-16-16-16h-448c-8.84 0-16 7.16-16 16v320c0 8.84 7.16 16 16 16h448c8.84 0 16-7.16 16-16v-33.58c35.89-4.68 127.51-22.2 166.78-81.78 21.01-31.89 23.9-70.21 8.6-113.93z m-35.29 96.27c-30.44 46.26-106.22 62.17-140.09 67.08v-193.9c12.72-3.26 35.3-7.97 59.43-7.97h0.28c20.64 0.03 38.08 3.51 51.84 10.35 16.34 8.12 27.34 20.79 33.62 38.75 11.99 34.24 10.33 62.27-5.08 85.69z" fill="#009986" opacity=".3" /><path d="M735.86 704h-32c-8.84 0-16-7.16-16-16V336c0-8.84 7.16-16 16-16h32c8.84 0 16 7.16 16 16v352c0 8.84-7.16 16-16 16z" fill="#009986" opacity=".3" /><path d="M655.86 640h16c8.84 0 16-7.16 16-16v-16c0-8.84-7.16-16-16-16s-16 7.16-16 16c-8.84 0-16 7.16-16 16s7.16 16 16 16zM568.59 640h29.09c8.84 0 16-7.16 16-16s-7.16-16-16-16h-29.09c-8.84 0-16 7.16-16 16s7.16 16 16 16zM394.04 640h29.09c8.84 0 16-7.16 16-16s-7.16-16-16-16h-29.09c-8.84 0-16 7.16-16 16s7.17 16 16 16zM510.41 608h-29.09c-8.84 0-16 7.16-16 16s7.16 16 16 16h29.09c8.84 0 16-7.16 16-16s-7.17-16-16-16zM319.86 640h16c8.84 0 16-7.16 16-16s-7.16-16-16-16c0-8.84-7.16-16-16-16s-16 7.16-16 16v16c0 8.84 7.16 16 16 16zM319.86 547.2c8.84 0 16-7.16 16-16v-38.4c0-8.84-7.16-16-16-16s-16 7.16-16 16v38.4c0 8.84 7.16 16 16 16zM319.86 432c8.84 0 16-7.16 16-16 8.84 0 16-7.16 16-16s-7.16-16-16-16h-16c-8.84 0-16 7.16-16 16v16c0 8.84 7.16 16 16 16zM568.59 416h29.09c8.84 0 16-7.16 16-16s-7.16-16-16-16h-29.09c-8.84 0-16 7.16-16 16s7.16 16 16 16zM394.04 416h29.09c8.84 0 16-7.16 16-16s-7.16-16-16-16h-29.09c-8.84 0-16 7.16-16 16s7.17 16 16 16zM481.31 416h29.09c8.84 0 16-7.16 16-16s-7.16-16-16-16h-29.09c-8.84 0-16 7.16-16 16s7.17 16 16 16zM655.86 416c0 8.84 7.16 16 16 16s16-7.16 16-16v-16c0-8.84-7.16-16-16-16h-16c-8.84 0-16 7.16-16 16s7.16 16 16 16zM671.86 476.8c-8.84 0-16 7.16-16 16v38.4c0 8.84 7.16 16 16 16s16-7.16 16-16v-38.4c0-8.84-7.16-16-16-16z" fill="#009986" /><path d="M927.24 442.71c-16.12-46.05-56.1-70.44-115.61-70.53h-0.33c-23 0-44.49 3.67-59.44 7.05V336c0-8.84-7.16-16-16-16h-480c-8.84 0-16 7.16-16 16v43.17c-14.94-3.37-36.3-6.99-59.16-6.99h-0.33c-59.52 0.09-99.5 24.48-115.61 70.53-15.3 43.71-12.41 82.04 8.6 113.92 39.16 59.44 130.42 77.02 166.5 81.75V688c0 8.84 7.16 16 16 16h480c8.84 0 16-7.16 16-16v-49.58c35.89-4.68 127.51-22.2 166.78-81.78 21.01-31.89 23.9-70.21 8.6-113.93zM192.43 595.88c-56.01-16.16-81.13-39.84-92.34-56.86-15.44-23.43-17.11-51.48-5.12-85.74 6.25-17.86 17.16-30.49 33.35-38.61 13.65-6.85 30.96-10.38 51.44-10.49h0.95c23.84 0 46.35 4.66 59.16 7.91v193.95c-11.93-1.73-28.96-4.82-47.44-10.16zM719.86 672h-448V400.33 352h448v320z m172.09-133.02c-30.44 46.26-106.22 62.17-140.09 67.08v-193.9c12.72-3.26 35.3-7.97 59.43-7.97h0.28c20.64 0.03 38.08 3.51 51.84 10.35 16.34 8.12 27.34 20.79 33.62 38.75 11.99 34.24 10.33 62.27-5.08 85.69z" fill="#009986" /></svg>