<svg class="svg-icon" style="width: 1em; height: 1em;vertical-align: middle;fill: currentColor;overflow: hidden;" viewBox="0 0 1024 1024" version="1.1" xmlns="http://www.w3.org/2000/svg"><path d="M512 512m-414 0a414 414 0 1 0 828 0 414 414 0 1 0-828 0Z" fill="#F0C48A" /><path d="M928.2 744H95.8c-46.4 0-84-37.6-84-84V140.4C11.8 94 49.4 56.2 96 56.2h832.2c46.4 0 84.2 37.6 84.2 84.2V660c-0.2 46.4-37.8 84-84.2 84z" fill="#D3E6F8" /><path d="M925.8 56.2c47.8 0 86.4 38.6 86.4 86.4v488.4h-86.4V56.2z" fill="#A4CFF2" /><path d="M11.8 631V660c0 46.4 37.6 84.2 84.2 84.2h832.2c46.4 0 84.2-37.6 84.2-84.2v-29H11.8z" fill="#FFFFFF" /><path d="M405 744h214.2v143H405zM754.2 967.8H269.8v-40c0-22.4 18.2-40.8 40.8-40.8h403c22.4 0 40.8 18.2 40.8 40.8v40z" fill="#FFFFFF" /><path d="M667.8 967.8h86.4v-40c0-22.4-18.2-40.8-40.8-40.8h-45.6v80.8zM925.8 749.2c47.8 0 86.4-38.6 86.4-86.4v-38.4h-86.4v124.8zM568 744h51v139.6H568z" fill="#D3E6F8" /><path d="M928.2 755.8H95.8C43 755.8 0 712.8 0 660V140.4c0-52.8 43-95.8 95.8-95.8H928c52.8 0 95.8 43 95.8 95.8V660c0.2 52.8-42.8 95.8-95.6 95.8zM95.8 68c-40 0-72.4 32.4-72.4 72.4V660c0 40 32.4 72.4 72.4 72.4H928c40 0 72.4-32.4 72.4-72.4V140.4c0-40-32.4-72.4-72.4-72.4H95.8z" fill="#4C4372" /><path d="M619 898.8h-214c-6.4 0-11.8-5.2-11.8-11.8V744c0-6.4 5.2-11.8 11.8-11.8h214.2c6.4 0 11.8 5.2 11.8 11.8v143c-0.2 6.6-5.4 11.8-12 11.8z m-202.4-23.4h190.8v-119.6h-190.8v119.6z" fill="#4C4372" /><path d="M754.2 979.4H269.8c-6.4 0-11.8-5.2-11.8-11.8v-40c0-29 23.6-52.4 52.4-52.4h403c29 0 52.4 23.6 52.4 52.4v40c0.2 6.6-5 11.8-11.6 11.8zM281.4 956h461v-28.2c0-16-13-29-29-29H310.4c-16 0-29 13-29 29V956zM995.8 642.6H17.6c-6.4 0-11.8-5.2-11.8-11.8 0-6.4 5.2-11.8 11.8-11.8h978.2c6.4 0 11.8 5.2 11.8 11.8-0.2 6.6-5.4 11.8-11.8 11.8z" fill="#4C4372" /><path d="M247.2 316m-90.2 0a90.2 90.2 0 1 0 180.4 0 90.2 90.2 0 1 0-180.4 0Z" fill="#FD919E" /><path d="M247.2 418c-56.2 0-102-45.8-102-102s45.8-102 102-102 102 45.8 102 102-45.8 102-102 102z m0-180.6c-43.2 0-78.4 35.2-78.4 78.4s35.2 78.4 78.4 78.4 78.4-35.2 78.4-78.4c0.2-43.2-35.2-78.4-78.4-78.4z" fill="#4C4372" /><path d="M210.4 535.6c-54.6 0-99-44.2-99-99 0-54.6 44.2-99 99-99 15.8 0 30.6 3.6 43.8 10.2 27-35.8 69.8-59 118.2-59 73.6 0 134.6 53.8 145.8 124.4 3.6-0.6 7.2-1 10.8-1 34 0 61.6 27.6 61.6 61.6s-27.6 61.6-61.6 61.6H210.4z" fill="#FFFFFF" /><path d="M529 547.2H210.4c-61 0-110.6-49.6-110.6-110.6 0-61 49.6-110.6 110.6-110.6 14 0 27.4 2.6 40.2 7.6 30.4-36 74.2-56.4 121.6-56.4 38.2 0 75 13.6 104 38.6 25.8 22.2 43.8 52 51.4 84.8 41-0.8 74.8 32.4 74.8 73.4 0 40.4-32.8 73.2-73.4 73.2z m-318.6-197.8c-48 0-87.2 39.2-87.2 87.2s39.2 87.2 87.2 87.2h318.6c27.6 0 50-22.4 50-50s-22.4-50-50-50c-2.8 0-5.8 0.2-8.8 0.8-3 0.6-6.2-0.2-8.8-2-2.6-1.8-4.2-4.6-4.8-7.8-5-31.6-21.2-60.6-45.6-81.6-24.6-21.2-56.2-32.8-88.6-32.8-43.2 0-82.8 19.8-108.8 54.4-3.4 4.6-9.6 6-14.6 3.4-12-5.8-25-8.8-38.6-8.8zM243.6 201.6c-6.4 0-11.8-5.2-11.8-11.8V154.2c0-6.4 5.2-11.8 11.8-11.8s11.8 5.2 11.8 11.8v35.6c0 6.6-5.2 11.8-11.8 11.8zM330.4 237.4c-3 0-6-1.2-8.2-3.4-4.6-4.6-4.6-12 0-16.6l25.2-25.2c4.6-4.6 12-4.6 16.6 0 4.6 4.6 4.6 12 0 16.6L338.6 234c-2.2 2.4-5.2 3.4-8.2 3.4zM121.2 324.2H85.4c-6.4 0-11.8-5.2-11.8-11.8s5.2-11.8 11.8-11.8h35.6c6.4 0 11.8 5.2 11.8 11.8s-5.2 11.8-11.6 11.8z" fill="#4C4372" /><path d="M157 237.4c-3 0-6-1.2-8.2-3.4l-25.2-25.2c-4.6-4.6-4.6-12 0-16.6 4.6-4.6 12-4.6 16.6 0l25.2 25.2c4.6 4.6 4.6 12 0 16.6-2.4 2.4-5.4 3.4-8.4 3.4z" fill="#4C4372" /><path d="M691 232.6h86.6v86.6h-86.6z" fill="#FFFFFF" /><path d="M832.4 232.6h86.6v86.6h-86.6z" fill="#FD919E" /><path d="M691 370.4h86.6v86.6h-86.6z" fill="#A4CFF2" /><path d="M832.4 370.4h86.6v86.6h-86.6z" fill="#7BABF1" /><path d="M777.6 331h-86.6c-6.4 0-11.8-5.2-11.8-11.8v-86.6c0-6.4 5.2-11.8 11.8-11.8h86.6c6.4 0 11.8 5.2 11.8 11.8v86.6c0 6.6-5.2 11.8-11.8 11.8z m-74.8-23.4H766v-63.2h-63.2v63.2zM919 331h-86.6c-6.4 0-11.8-5.2-11.8-11.8v-86.6c0-6.4 5.2-11.8 11.8-11.8h86.6c6.4 0 11.8 5.2 11.8 11.8v86.6c0 6.6-5.4 11.8-11.8 11.8zM844 307.6h63.2v-63.2H844v63.2zM777.6 468.8h-86.6c-6.4 0-11.8-5.2-11.8-11.8v-86.6c0-6.4 5.2-11.8 11.8-11.8h86.6c6.4 0 11.8 5.2 11.8 11.8v86.6c0 6.6-5.2 11.8-11.8 11.8z m-74.8-23.4H766v-63.2h-63.2v63.2zM919 468.8h-86.6c-6.4 0-11.8-5.2-11.8-11.8v-86.6c0-6.4 5.2-11.8 11.8-11.8h86.6c6.4 0 11.8 5.2 11.8 11.8v86.6c0 6.6-5.4 11.8-11.8 11.8zM844 445.4h63.2v-63.2H844v63.2z" fill="#4C4372" /></svg>